PathFileType	4	(X/Y/Z)	C:/Users/beibeiliu/ov580/test_trc\sequence.6_training_dense_right.trc
DataRate	CameraRate	NumFrames	NumMarkers	Units	OrigDataRate	OrigDataStartFrame	OrigNumFrames
120	120	12	19	mm	120	1	314
Frame#	Time	ThumbCMC			ThumbMCP			ThumbIP			ThumbTip			IndexMCP			IndexPIP			IndexTip			MiddleMCP			MiddlePIP			MiddleTip			RingMCP			RingPIP			RingTip			PinkyMCP			PinkyPIP			PinkyTip			BackHand1			BackHand2			BackHand3	
		X0	Y0	Z0	X1	Y1	Z1	X2	Y2	Z2	X3	Y3	Z3	X4	Y4	Z4	X5	Y5	Z5	X6	Y6	Z6	X7	Y7	Z7	X8	Y8	Z8	X9	Y9	Z9	X10	Y10	Z10	X11	Y11	Z11	X12	Y12	Z12	X13	Y13	Z13	X14	Y14	Z14	X15	Y15	Z15	X16	Y16	Z16	X17	Y17	Z17	X18	Y18	Z18	
0	0	222.278	-25.7928	8.08258	229.528	3.11046	-1.57284	229.733	24.4385	-16.4145	222.313	43.5747	-23.3822	213.317	-3.50966	-53.6906	221.842	15.0086	-68.4632	226.841	30.7562	-77.5382	196.015	15.5962	-43.5813	202.269	40.6966	-28.7162	203.357	27.594	1.07369	181.311	18.4789	-28.5917	194.934	33.606	-6.87417	196.003	11.0316	11.7967	164.487	19.7817	-15.857	182.505	27.0471	2.03029	189.847	6.75463	11.3201	169.797	-29.2363	-11.6576	170.371	-42.6173	6.26234	194.678	-42.3487	-7.25972	
1	0.00833333	217.011	-26.9296	13.0142	233.577	1.4757	-0.750044	227.199	21.7857	-16.5034	212.104	37.596	-25.7531	211.978	-4.5968	-50.1129	217.506	18.2657	-66.5544	225.493	38.037	-72.5855	190.987	13.9158	-44.6832	200.89	41.1962	-34.5014	201.563	35.5855	-1.47095	178.692	20.5359	-29.0073	190.238	34.8176	-8.64567	192.587	14.3627	12.0982	166.207	19.0113	-17.8279	179.709	28.9483	0.643945	185.793	8.9055	14.3396	170.009	-26.9267	-13.4819	171.197	-45.5758	9.46406	195.665	-41.9764	-4.17536	
2	0.0166667	220.278	-25.4126	11.6274	230.979	0.507121	-3.69653	222.786	17.2871	-17.641	209.877	36.9419	-26.6523	210.15	-1.48808	-52.0022	214.572	19.554	-65.285	218.265	44.2856	-63.7593	193.537	12.9996	-44.3563	198.802	44.048	-33.3682	199.185	39.9331	-2.90349	175.201	22.2242	-30.1109	189.944	35.2296	-9.82847	191.422	18.9653	10.014	165.328	20.6027	-17.8257	174.288	29.8072	0.505942	185.718	5.01291	13.6665	168.841	-26.9051	-14.6824	171.837	-45.1459	8.34901	196.688	-40.9147	-4.49623	
3	0.025	219.95	-24.1129	9.93717	226.671	-0.213132	-6.42458	221.765	18.8852	-19.7903	199.184	28.8994	-26.3047	213.105	-3.56169	-48.2091	212.697	24.3191	-63.0193	219.935	49.0675	-52.257	190.959	15.6659	-46.7508	196.604	43.1927	-35.9321	202.352	42.1985	-4.35137	179.906	20.6538	-31.8566	185.612	35.1098	-13.3272	189.615	17.1754	9.34604	162.554	19.2076	-18.7415	174.601	27.9664	1.1409	183.608	5.37383	11.1527	168.419	-28.4917	-14.61	173.3	-44.4701	9.22236	196.079	-39.5812	-7.07753	
4	0.0333333	221.515	-25.69	13.7882	227.188	0.617321	-5.27968	216.054	18.6783	-22.3381	193.33	26.948	-25.6009	208.94	-2.53696	-49.6997	213.939	21.4215	-62.1975	213.071	46.0528	-45.7823	192.591	14.8475	-47.5048	198.201	42.0159	-38.2357	201.224	42.8667	-5.4001	176.546	18.8694	-30.8473	185.73	34.215	-14.1338	190.673	15.3772	7.70887	165.491	16.3843	-19.8064	175.652	27.3925	-1.72103	185.254	8.28371	9.86145	171.297	-28.2182	-13.5531	170.907	-45.0936	7.6858	196.8	-42.4983	-5.48911	
5	0.0416667	224.036	-25.0255	13.4253	226.866	1.42155	-4.0674	215.967	19.3181	-18.9836	191.184	27.9238	-22.6059	207.413	-3.29656	-49.4319	211.123	22.2701	-61.2662	210.949	43.9021	-35.1024	190.649	13.2442	-48.9731	192.496	39.8505	-40.6917	198.055	40.0008	-7.33489	176.888	15.8939	-32.1247	184.128	33.7059	-13.3143	192.109	11.3112	7.11566	165.604	16.0047	-19.5027	176.489	27.1369	-3.06963	184.72	3.85788	12.0295	169.869	-30.8753	-10.0706	170.47	-45.9655	11.5565	197.636	-42.369	-3.85505	
6	0.05	223.26	-22.7031	10.0941	230.302	6.45291	0.223591	216.261	26.9766	-16.0612	193.822	38.6504	-18.2893	208.964	-4.98689	-49.5167	210.596	25.1513	-59.8491	209.664	42.1341	-37.8161	185.82	9.62738	-49.0641	191.736	38.7623	-39.2841	196.51	30.4983	-10.0559	176.328	18.2648	-33.3568	184.912	33.8233	-12.0666	190.899	13.4531	4.86449	163.711	13.6332	-19.7801	174.525	27.2216	-4.65186	184.066	3.96093	10.0502	173.841	-31.1587	-13.6348	173.795	-45.4814	12.2523	200.909	-40.714	-8.29015	
7	0.0583333	224.806	-21.773	8.48037	228.75	7.53815	0.503433	217.552	28.5374	-13.7143	194.482	40.5298	-17.605	206.804	-3.77528	-52.5439	210.162	21.3398	-63.3874	209.032	42.0494	-42.0324	190.305	5.88525	-48.1259	193.898	37.093	-38.5728	199.745	28.3678	-11.2978	176.177	12.8887	-31.9115	187.484	32.3415	-13.5866	191.531	12.0306	5.46303	161.754	11.471	-18.4309	177.665	25.9844	-1.50568	183.476	3.09861	9.28927	174.054	-32.1616	-10.2037	171.68	-47.1714	11.7749	196.588	-42.156	-4.28184	
8	0.0666667	222.133	-22.9718	13.5108	227.794	7.45418	0.790464	219.879	28.0323	-10.6086	196.65	43.9899	-18.3199	211.429	-4.08536	-54.3085	206.302	20.3432	-63.9572	214.237	46.0774	-46.6291	187.65	8.55077	-47.3347	194.239	37.2187	-40.0755	198.344	24.3607	-8.67655	173.019	18.3427	-31.6102	182.295	33.8714	-14.3531	189.251	11.6837	6.81686	162.584	15.1788	-18.5814	179.674	24.716	-2.38965	183.466	2.92044	10.611	174.096	-31.1944	-13.5939	175.904	-46.1459	11.7591	202.09	-41.1546	-4.6811	
9	0.075	225.009	-20.1345	8.10749	227.944	7.62408	1.08739	219.846	26.8474	-9.11077	199.538	40.8033	-15.8405	212.403	-4.95398	-51.5274	208.669	19.4776	-66.5534	216.418	46.826	-57.7217	189.554	7.39675	-47.4628	192.467	37.8587	-40.7249	201.346	30.8784	-11.703	179.382	16.8507	-32.6342	185.209	34.6451	-14.2283	194.407	16.2797	3.64841	163.706	16.0449	-17.8283	178.342	27.1536	-4.01832	185.838	2.69181	12.5114	171.189	-29.0183	-11.8164	175.576	-44.3655	9.34958	198.023	-39.7	-7.82927	
10	0.0833333	226.701	-22.7302	13.0244	232.791	8.38005	0.0760256	218.723	26.9463	-12.9272	199.391	39.2698	-17.5663	210.778	-4.9692	-49.9654	215.491	20.2951	-68.4923	215.176	47.1259	-66.1996	189.789	9.61899	-47.0189	197.788	39.7846	-39.0828	201.275	33.7255	-8.91736	180.654	19.5351	-32.0723	187.633	34.031	-11.517	194.233	17.206	7.02898	163.087	17.2686	-16.9901	176.393	27.7089	-1.29131	186.411	5.51744	12.2255	177.604	-28.4404	-13.5392	176.516	-44.7625	9.56392	200.889	-40.9805	-6.77835	
11	0.0916667	225.34	-21.003	10.0164	234.873	5.68176	-2.85462	222.434	25.0423	-19.3109	198.285	35.7383	-22.6471	216.565	-2.65295	-50.6097	220.505	17.9552	-68.6944	216.64	42.8219	-73.2796	196.481	10.916	-47.1774	197.862	41.1301	-40.6092	202.862	43.9656	-9.18695	178.497	19.1664	-30.8984	186.788	35.4753	-11.0577	194.268	17.4695	8.29727	167.362	13.0858	-18.8887	178.544	27.2614	0.239874	188.104	3.72635	12.3007	178.111	-31.1351	-11.3831	181.158	-44.9905	10.3956	203.882	-38.4702	-7.03593	
